mtllib material.mtl
o Default
v 5.137910746235862e-16 1 2
v 7.457394005261516e-16 2 3
v 4.668988012679961e-16 2 2
v 7.358356795486175e-16 1 3
v 1 -0.0002840912784449756 2.9997498989105225
v 2 -0.00017797060718294233 1.9998500347137451
v 1 -0.0001815181167330593 1.9998500347137451
v 2 -0.00029173053917475045 2.9997498989105225
v 0 1.3239454020944064e-12 3
v 1 -0.0001815181167330593 1.9998500347137451
v 0 1.3239454020944064e-12 2
v 1 -0.0002840912784449756 2.9997498989105225
v 0 1.3239454020944064e-12 2
v 1 -0.00008795053145149723 0.9999499917030334
v 0 -6.055828581652545e-12 1
v 1 -0.0001815181167330593 1.9998500347137451
v 1 -0.0001815181167330593 1.9998500347137451
v 2 -0.00008600591536378488 0.9999499917030334
v 1 -0.00008795053145149723 0.9999499917030334
v 2 -0.00017797060718294233 1.9998500347137451
v 2 -0.00017797060718294233 1.9998500347137451
v 3 -0.00009328933083452284 0.9999499917030334
v 2 -0.00008600591536378488 0.9999499917030334
v 3 -0.00017797060718294233 1.9998500347137451
v 2 -0.00008600591536378488 0.9999499917030334
v 3 0.000006710666639264673 -0.00005000249802833423
v 2 0.000013994082110002637 -0.00005000249802833423
v 3 -0.00009328933083452284 0.9999499917030334
v 1 -0.00008795053145149723 0.9999499917030334
v 2 0.000013994082110002637 -0.00005000249802833423
v 1 0.000012049465112795588 -0.00005000249802833423
v 2 -0.00008600591536378488 0.9999499917030334
v 0 -6.055828581652545e-12 1
v 1 0.000012049465112795588 -0.00005000249802833423
v 0 1.315208792568301e-12 5.797216484637602e-9
v 1 -0.00008795053145149723 0.9999499917030334
v 0 1.3239454020944064e-12 2
v 7.358356795486175e-16 1 3
v 5.137910746235862e-16 1 2
v 0 1.3239454020944064e-12 3
v 2 -0.00029173053917475045 2.9997498989105225
v 3 -0.00017797060718294233 1.9998500347137451
v 2 -0.00017797060718294233 1.9998500347137451
v 3 -0.00029150862246751785 2.9997498989105225
v 4.668988012679961e-16 2 2
v 7.457394005261516e-16 3 3
v 4.668988012679961e-16 3 2
v 7.457394005261516e-16 2 3
v 3.162378185634821e-16 2 1
v 4.668988012679961e-16 3 2
v -1.4947647594920578e-15 3 1
v 4.668988012679961e-16 2 2
v 9.41931937861161e-17 2 0
v -1.4947647594920578e-15 3 1
v -1.716809364417089e-15 3 0
v 3.162378185634821e-16 2 1
v 1.7595187773209006e-15 1 0
v 3.162378185634821e-16 2 1
v 9.41931937861161e-17 2 0
v 1.9815632763668135e-15 1 1
v 0 1.315208792568301e-12 5.797216484637602e-9
v 1.9815632763668135e-15 1 1
v 1.7595187773209006e-15 1 0
v 1.9815632763668135e-15 0 1
vt 0 0.5
vt 0.125 0.625
vt 0 0.625
vt 0 0.5
vt 0.125 0.5
vt 0.125 0.625
vt 0.375 0.875
vt 0.5 1
vt 0.375 1
vt 0.375 0.875
vt 0.5 0.875
vt 0.5 1
vt 0.375 0.875
vt 0.5 1
vt 0.375 1
vt 0.375 0.875
vt 0.5 0.875
vt 0.5 1
vt 0.375 0.875
vt 0.5 1
vt 0.375 1
vt 0.375 0.875
vt 0.5 0.875
vt 0.5 1
vt 0.375 0.875
vt 0.5 1
vt 0.375 1
vt 0.375 0.875
vt 0.5 0.875
vt 0.5 1
vt 0.375 0.875
vt 0.5 1
vt 0.375 1
vt 0.375 0.875
vt 0.5 0.875
vt 0.5 1
vt 0.375 0.875
vt 0.5 1
vt 0.375 1
vt 0.375 0.875
vt 0.5 0.875
vt 0.5 1
vt 0.375 0.875
vt 0.5 1
vt 0.375 1
vt 0.375 0.875
vt 0.5 0.875
vt 0.5 1
vt 0.375 0.875
vt 0.5 1
vt 0.375 1
vt 0.375 0.875
vt 0.5 0.875
vt 0.5 1
vt 0 0.5
vt 0.125 0.625
vt 0 0.625
vt 0 0.5
vt 0.125 0.5
vt 0.125 0.625
vt 0.375 0.875
vt 0.5 1
vt 0.375 1
vt 0.375 0.875
vt 0.5 0.875
vt 0.5 1
vt 0 0.5
vt 0.125 0.625
vt 0 0.625
vt 0 0.5
vt 0.125 0.5
vt 0.125 0.625
vt 0 0.5
vt 0.125 0.625
vt 0 0.625
vt 0 0.5
vt 0.125 0.5
vt 0.125 0.625
vt 0 0.5
vt 0.125 0.625
vt 0 0.625
vt 0 0.5
vt 0.125 0.5
vt 0.125 0.625
vt 0 0.5
vt 0.125 0.625
vt 0 0.625
vt 0 0.5
vt 0.125 0.5
vt 0.125 0.625
vt 0 0.5
vt 0.125 0.625
vt 0 0.625
vt 0 0.5
vt 0.125 0.5
vt 0.125 0.625
vn -1 1.5893417408207015e-16 2.409766030360727e-16
vn -1 -1.2329517459352003e-17 2.5990860114711407e-16
vn -1 -1.1723068338897525e-17 2.467956951197451e-16
vn -1 1.5893417408207015e-16 2.409766030360727e-16
vn -1 4.198434917171308e-16 1.4802973661668753e-16
vn -1 -1.2329517459352003e-17 2.5990860114711407e-16
vn 0.0000960695589129593 0.9999999897341216 0.00010631272980494903
vn 0.0000013046095089836549 0.9999999950197346 0.00009979393204370698
vn 0.00010635459252183275 0.9999999910868324 0.00008071577110901672
vn 0.0000960695589129593 0.9999999897341216 0.00010631272980494903
vn 0.00000247244799145286 0.9999999935334003 0.00011369734419578569
vn 0.0000013046095089836549 0.9999999950197346 0.00009979393204370698
vn 0.00023281751966354087 0.9999999715825808 0.00005129171478812191
vn 0.00010635459252183275 0.9999999910868324 0.00008071577110901672
vn 0.00015033359618762176 0.999999988213425 0.000031192309933795915
vn 0.00023281751966354087 0.9999999715825808 0.00005129171478812191
vn 0.0000960695589129593 0.9999999897341216 0.00010631272980494903
vn 0.00010635459252183275 0.9999999910868324 0.00008071577110901672
vn 0.00015033359618762176 0.999999988213425 0.000031192309933795915
vn 0.000058600724994662674 0.9999999949868819 0.00008119231001132806
vn 0.000054618862356051515 0.9999999979528345 0.00003333333215695637
vn 0.00015033359618762176 0.999999988213425 0.000031192309933795915
vn 0.00010635459252183275 0.9999999910868324 0.00008071577110901672
vn 0.000058600724994662674 0.9999999949868819 0.00008119231001132806
vn 0.00010635459252183275 0.9999999910868324 0.00008071577110901672
vn 0.000002402250769333501 0.9999999953646871 0.00009625411682166729
vn 0.000058600724994662674 0.9999999949868819 0.00008119231001132806
vn 0.00010635459252183275 0.9999999910868324 0.00008071577110901672
vn 0.0000013046095089836549 0.9999999950197346 0.00009979393204370698
vn 0.000002402250769333501 0.9999999953646871 0.00009625411682166729
vn 0.0000013046095089836549 0.9999999950197346 0.00009979393204370698
vn 0.0000048556102914123965 0.9999999957358359 0.00009222120793158185
vn 0.000002402250769333501 0.9999999953646871 0.00009625411682166729
vn 0.0000013046095089836549 0.9999999950197346 0.00009979393204370698
vn -7.397223527421621e-8 0.999999994591635 0.00010400348338511694
vn 0.0000048556102914123965 0.9999999957358359 0.00009222120793158185
vn 0.000002402250769333501 0.9999999953646871 0.00009625411682166729
vn 0.000007283415434127702 0.9999999949734761 0.00009999999755102894
vn 0.0000011313941228979796 0.9999999949993602 0.00009999999725045243
vn 0.000002402250769333501 0.9999999953646871 0.00009625411682166729
vn 0.0000048556102914123965 0.9999999957358359 0.00009222120793158185
vn 0.000007283415434127702 0.9999999949734761 0.00009999999755102894
vn 0.000058600724994662674 0.9999999949868819 0.00008119231001132806
vn 0.0000011313941228979796 0.9999999949993602 0.00009999999725045243
vn 0.000024653814939434344 0.9999999974738725 0.00006666666689889742
vn 0.000058600724994662674 0.9999999949868819 0.00008119231001132806
vn 0.000002402250769333501 0.9999999953646871 0.00009625411682166729
vn 0.0000011313941228979796 0.9999999949993602 0.00009999999725045243
vn 0.000054618862356051515 0.9999999979528345 0.00003333333215695637
vn 0.000024653814939434344 0.9999999974738725 0.00006666666689889742
vn -0.000012049463796343452 0.9999999999274052 7.371037416417246e-12
vn 0.000054618862356051515 0.9999999979528345 0.00003333333215695637
vn 0.000058600724994662674 0.9999999949868819 0.00008119231001132806
vn 0.000024653814939434344 0.9999999974738725 0.00006666666689889742
vn -1 6.248133770869291e-16 1.1102230246251565e-16
vn -1 4.198434917171308e-16 1.4802973661668753e-16
vn -1 1.5893417408207015e-16 2.409766030360727e-16
vn -1 6.248133770869291e-16 1.1102230246251565e-16
vn -1 7.358356795495917e-16 0
vn -1 4.198434917171308e-16 1.4802973661668753e-16
vn 0.00000247244799145286 0.9999999935334003 0.00011369734419578569
vn -7.397223527421621e-8 0.999999994591635 0.00010400348338511694
vn 0.0000013046095089836549 0.9999999950197346 0.00009979393204370698
vn 0.00000247244799145286 0.9999999935334003 0.00011369734419578569
vn -2.2191670580195163e-7 0.999999993553244 0.0001135493849114872
vn -7.397223527421621e-8 0.999999994591635 0.00010400348338511694
vn -1 -1.1723068338897525e-17 2.467956951197451e-16
vn -1 0 2.788405992581555e-16
vn -1 -6.036675260185133e-16 7.970550475742411e-16
vn -1 -1.1723068338897525e-17 2.467956951197451e-16
vn -1 -1.2329517459352003e-17 2.5990860114711407e-16
vn -1 0 2.788405992581555e-16
vn -1 -1.3905312394898392e-15 5.556916584130426e-16
vn -1 -6.036675260185133e-16 7.970550475742411e-16
vn -1 -1.811002571438095e-15 8.019175968208171e-16
vn -1 -1.3905312394898392e-15 5.556916584130426e-16
vn -1 -1.1723068338897525e-17 2.467956951197451e-16
vn -1 -6.036675260185133e-16 7.970550475742411e-16
vn -1 -1.7624435732645098e-15 2.220446181599211e-16
vn -1 -1.811002571438095e-15 8.019175968208171e-16
vn -1 -1.811002558203205e-15 2.220446049250313e-16
vn -1 -1.7624435732645098e-15 2.220446181599211e-16
vn -1 -1.3905312394898392e-15 5.556916584130426e-16
vn -1 -1.811002571438095e-15 8.019175968208171e-16
vn -1 -5.237107542425538e-16 2.2204454095639726e-16
vn -1 -1.3905312394898392e-15 5.556916584130426e-16
vn -1 -1.7624435732645098e-15 2.220446181599211e-16
vn -1 -5.237107542425538e-16 2.2204454095639726e-16
vn -1 3.139777360237443e-17 8.085507619820636e-16
vn -1 -1.3905312394898392e-15 5.556916584130426e-16
vn -1 8.797593893052274e-16 1.101803893450139e-15
vn -1 3.139777360237443e-17 8.085507619820636e-16
vn -1 -5.237107542425538e-16 2.2204454095639726e-16
vn -1 8.797593893052274e-16 1.101803893450139e-15
vn -1 0 1.981563287854365e-15
vn -1 3.139777360237443e-17 8.085507619820636e-16
g wfc_door
usemtl material1
f 1/1/1 2/2/2 3/3/3
f 1/4/4 4/5/5 2/6/6
f 5/7/7 6/8/8 7/9/9
f 5/10/10 8/11/11 6/12/12
f 9/13/13 10/14/14 11/15/15
f 9/16/16 12/17/17 10/18/18
f 13/19/19 14/20/20 15/21/21
f 13/22/22 16/23/23 14/24/24
f 17/25/25 18/26/26 19/27/27
f 17/28/28 20/29/29 18/30/30
f 21/31/31 22/32/32 23/33/33
f 21/34/34 24/35/35 22/36/36
f 25/37/37 26/38/38 27/39/39
f 25/40/40 28/41/41 26/42/42
f 29/43/43 30/44/44 31/45/45
f 29/46/46 32/47/47 30/48/48
f 33/49/49 34/50/50 35/51/51
f 33/52/52 36/53/53 34/54/54
f 37/55/55 38/56/56 39/57/57
f 37/58/58 40/59/59 38/60/60
f 41/61/61 42/62/62 43/63/63
f 41/64/64 44/65/65 42/66/66
f 45/67/67 46/68/68 47/69/69
f 45/70/70 48/71/71 46/72/72
f 49/73/73 50/74/74 51/75/75
f 49/76/76 52/77/77 50/78/78
f 53/79/79 54/80/80 55/81/81
f 53/82/82 56/83/83 54/84/84
f 57/85/85 58/86/86 59/87/87
f 57/88/88 60/89/89 58/90/90
f 61/91/91 62/92/92 63/93/93
f 61/94/94 64/95/95 62/96/96
