mtllib material.mtl
o Default
v 3 2 0
v 2 3 0
v 3 3 -3.552713678800501e-15
v 2 2 0
v 3 1 -3.552713678800501e-15
v 2 2 0
v 3 2 0
v 2 1 0
v 3 0.000017523765563964844 -0.00005000249802833423
v 2 1 0
v 3 1 -3.552713678800501e-15
v 2 0.000010251998901367188 -0.00005000249802833423
v 2 1 0
v 1 2 -3.552713678800501e-15
v 2 2 0
v 1 1 0
v 2 2 0
v 1 3 0
v 2 3 0
v 1 2 -3.552713678800501e-15
v 2 0.000010251998901367188 -0.00005000249802833423
v 1 1 0
v 2 1 0
v 1 0.000007897615432739258 -0.00005000249802833423
v 1 2 -3.552713678800501e-15
v 0 3 0
v 1 3 0
v 0 2 0
v 1 1 0
v 0 2 0
v 1 2 -3.552713678800501e-15
v 0 1 0
v 1 0.000007897615432739258 -0.00005000249802833423
v 0 1 0
v 1 1 0
v 0 0 0
v 2 -0.00028999289497733116 2.9997498989105225
v 3 -0.00020712784316856414 1.9998500347137451
v 2 -0.00020712784316856414 1.9998500347137451
v 3 -0.0002865135611500591 2.9997498989105225
v 1 -0.00026919165975414217 2.9997498989105225
v 2 -0.00020712784316856414 1.9998500347137451
v 1 -0.0002039678511209786 1.9998500347137451
v 2 -0.00028999289497733116 2.9997498989105225
v 0 -4.836882196851411e-12 3
v 1 -0.0002039678511209786 1.9998500347137451
v 0 -4.836882196851411e-12 2
v 1 -0.00026919165975414217 2.9997498989105225
v 0 -4.836882196851411e-12 2
v 1 -0.00009208810661220923 0.9999499917030334
v 0 -6.7112105803235345e-12 1
v 1 -0.0002039678511209786 1.9998500347137451
v 1 -0.0002039678511209786 1.9998500347137451
v 2 -0.0000897358768270351 0.9999499917030334
v 1 -0.00009208810661220923 0.9999499917030334
v 2 -0.00020712784316856414 1.9998500347137451
v 2 -0.00020712784316856414 1.9998500347137451
v 3 -0.00008247426012530923 0.9999499917030334
v 2 -0.0000897358768270351 0.9999499917030334
v 3 -0.00020712784316856414 1.9998500347137451
v 2 -0.0000897358768270351 0.9999499917030334
v 3 0.000017523765563964844 -0.00005000249802833423
v 2 0.000010251998901367188 -0.00005000249802833423
v 3 -0.00008247426012530923 0.9999499917030334
v 1 -0.00009208810661220923 0.9999499917030334
v 2 0.000010251998901367188 -0.00005000249802833423
v 1 0.000007897615432739258 -0.00005000249802833423
v 2 -0.0000897358768270351 0.9999499917030334
v 0 -6.7112105803235345e-12 1
v 1 0.000007897615432739258 -0.00005000249802833423
v 0 0 0
v 1 -0.00009208810661220923 0.9999499917030334
v 4.841420627334887e-16 1 2
v 5.958078455381216e-16 2 3
v -3.0140737809384666e-15 2 2
v -2.954988997702743e-15 1 3
v -3.0140737809384666e-15 2 2
v 5.958078455381216e-16 3 3
v 4.0088843842750476e-16 3 2
v 5.958078455381216e-16 2 3
v -3.236118385863498e-15 2 1
v 4.0088843842750476e-16 3 2
v 1.8780419800478267e-16 3 1
v -3.0140737809384666e-15 2 2
v 0 2 0
v 1.8780419800478267e-16 3 1
v 0 3 0
v -3.236118385863498e-15 2 1
v 0 1 0
v -3.236118385863498e-15 2 1
v 0 2 0
v 2.350134205013235e-16 1 1
v 2.350134205013235e-16 1 1
v -3.0140737809384666e-15 2 2
v -3.236118385863498e-15 2 1
v 4.841420627334887e-16 1 2
v 0 -4.836882196851411e-12 2
v -2.954988997702743e-15 1 3
v 4.841420627334887e-16 1 2
v 0 -4.836882196851411e-12 3
v 0 -6.7112105803235345e-12 1
v 4.841420627334887e-16 1 2
v 2.350134205013235e-16 1 1
v 0 -4.836882196851411e-12 2
v 0 0 0
v 2.350134205013235e-16 1 1
v 0 1 0
v 2.350134205013235e-16 0 1
vt 0 0.5
vt 0.125 0.625
vt 0 0.625
vt 0 0.5
vt 0.125 0.5
vt 0.125 0.625
vt 0 0.5
vt 0.125 0.625
vt 0 0.625
vt 0 0.5
vt 0.125 0.5
vt 0.125 0.625
vt 0 0.5
vt 0.125 0.625
vt 0 0.625
vt 0 0.5
vt 0.125 0.5
vt 0.125 0.625
vt 0 0.5
vt 0.125 0.625
vt 0 0.625
vt 0 0.5
vt 0.125 0.5
vt 0.125 0.625
vt 0 0.5
vt 0.125 0.625
vt 0 0.625
vt 0 0.5
vt 0.125 0.5
vt 0.125 0.625
vt 0 0.5
vt 0.125 0.625
vt 0 0.625
vt 0 0.5
vt 0.125 0.5
vt 0.125 0.625
vt 0 0.5
vt 0.125 0.625
vt 0 0.625
vt 0 0.5
vt 0.125 0.5
vt 0.125 0.625
vt 0 0.5
vt 0.125 0.625
vt 0 0.625
vt 0 0.5
vt 0.125 0.5
vt 0.125 0.625
vt 0 0.5
vt 0.125 0.625
vt 0 0.625
vt 0 0.5
vt 0.125 0.5
vt 0.125 0.625
vt 0.375 0.875
vt 0.5 1
vt 0.375 1
vt 0.375 0.875
vt 0.5 0.875
vt 0.5 1
vt 0.375 0.875
vt 0.5 1
vt 0.375 1
vt 0.375 0.875
vt 0.5 0.875
vt 0.5 1
vt 0.375 0.875
vt 0.5 1
vt 0.375 1
vt 0.375 0.875
vt 0.5 0.875
vt 0.5 1
vt 0.375 0.875
vt 0.5 1
vt 0.375 1
vt 0.375 0.875
vt 0.5 0.875
vt 0.5 1
vt 0.375 0.875
vt 0.5 1
vt 0.375 1
vt 0.375 0.875
vt 0.5 0.875
vt 0.5 1
vt 0.375 0.875
vt 0.5 1
vt 0.375 1
vt 0.375 0.875
vt 0.5 0.875
vt 0.5 1
vt 0.375 0.875
vt 0.5 1
vt 0.375 1
vt 0.375 0.875
vt 0.5 0.875
vt 0.5 1
vt 0.375 0.875
vt 0.5 1
vt 0.375 1
vt 0.375 0.875
vt 0.5 0.875
vt 0.5 1
vt 0.375 0.875
vt 0.5 1
vt 0.375 1
vt 0.375 0.875
vt 0.5 0.875
vt 0.5 1
vt 0 0.5
vt 0.125 0.625
vt 0 0.625
vt 0 0.5
vt 0.125 0.5
vt 0.125 0.625
vt 0 0.5
vt 0.125 0.625
vt 0 0.625
vt 0 0.5
vt 0.125 0.5
vt 0.125 0.625
vt 0 0.5
vt 0.125 0.625
vt 0 0.625
vt 0 0.5
vt 0.125 0.5
vt 0.125 0.625
vt 0 0.5
vt 0.125 0.625
vt 0 0.625
vt 0 0.5
vt 0.125 0.5
vt 0.125 0.625
vt 0 0.5
vt 0.125 0.625
vt 0 0.625
vt 0 0.5
vt 0.125 0.5
vt 0.125 0.625
vt 0 0.5
vt 0.125 0.625
vt 0 0.625
vt 0 0.5
vt 0.125 0.5
vt 0.125 0.625
vt 0 0.5
vt 0.125 0.625
vt 0 0.625
vt 0 0.5
vt 0.125 0.5
vt 0.125 0.625
vt 0 0.5
vt 0.125 0.625
vt 0 0.625
vt 0 0.5
vt 0.125 0.5
vt 0.125 0.625
vt 0 0.5
vt 0.125 0.625
vt 0 0.625
vt 0 0.5
vt 0.125 0.5
vt 0.125 0.625
vn -1.1842378929335002e-15 0 -1
vn -1.1842378929335002e-15 -1.1842378929335002e-15 -1
vn -3.552713678800501e-15 -3.552713678800501e-15 -1
vn -1.1842378929335002e-15 0 -1
vn 5.921189464667501e-16 1.1842378929335002e-15 -1
vn -1.1842378929335002e-15 -1.1842378929335002e-15 -1
vn -2.3684757850445018e-15 0.000016667791409040476 -0.9999999998610922
vn 5.921189464667501e-16 1.1842378929335002e-15 -1
vn -1.1842378929335002e-15 0 -1
vn -2.3684757850445018e-15 0.000016667791409040476 -0.9999999998610922
vn -6.060229638557218e-11 0.000025001565907712445 -0.9999999996874609
vn 5.921189464667501e-16 1.1842378929335002e-15 -1
vn -1.818068890998948e-10 0.00005000319240315515 -0.9999999987498405
vn -6.060229638557218e-11 0.000025001565907712445 -0.9999999996874609
vn -2.3684757850445018e-15 0.000016667791409040476 -0.9999999998610922
vn -1.818068890998948e-10 0.00005000319240315515 -0.9999999987498405
vn -1.6044540328050112e-10 0.000050002971354236276 -0.9999999987498513
vn -6.060229638557218e-11 0.000025001565907712445 -0.9999999996874609
vn -6.060229638557218e-11 0.000025001565907712445 -0.9999999996874609
vn 0 0 -1
vn 5.921189464667501e-16 1.1842378929335002e-15 -1
vn -6.060229638557218e-11 0.000025001565907712445 -0.9999999996874609
vn -1.962158951764365e-11 0.000025001466062549278 -0.9999999996874632
vn 0 0 -1
vn 5.921189464667501e-16 1.1842378929335002e-15 -1
vn 1.1842378929335002e-15 2.3684757858670005e-15 -1
vn -1.1842378929335002e-15 -1.1842378929335002e-15 -1
vn 5.921189464667501e-16 1.1842378929335002e-15 -1
vn 0 0 -1
vn 1.1842378929335002e-15 2.3684757858670005e-15 -1
vn -1.6044540328050112e-10 0.000050002971354236276 -0.9999999987498513
vn -1.962158951764365e-11 0.000025001466062549278 -0.9999999996874632
vn -6.060229638557218e-11 0.000025001565907712445 -0.9999999996874609
vn -1.6044540328050112e-10 0.000050002971354236276 -0.9999999987498513
vn -0.00001666753857319714 0.00003333526193148309 -0.9999999993054768
vn -1.962158951764365e-11 0.000025001466062549278 -0.9999999996874632
vn 0 0 -1
vn -1.7763568394002505e-15 1.7763568394002505e-15 -1
vn 1.1842378929335002e-15 2.3684757858670005e-15 -1
vn 0 0 -1
vn -2.3684757858670005e-15 -1.1842378929335002e-15 -1
vn -1.7763568394002505e-15 1.7763568394002505e-15 -1
vn -1.962158951764365e-11 0.000025001466062549278 -0.9999999996874632
vn -2.3684757858670005e-15 -1.1842378929335002e-15 -1
vn 0 0 -1
vn -1.962158951764365e-11 0.000025001466062549278 -0.9999999996874632
vn -0.00001666749933120234 0.00001666763096574155 -0.9999999997221922
vn -2.3684757858670005e-15 -1.1842378929335002e-15 -1
vn -0.00001666753857319714 0.00003333526193148309 -0.9999999993054768
vn -0.00001666749933120234 0.00001666763096574155 -0.9999999997221922
vn -1.962158951764365e-11 0.000025001466062549278 -0.9999999996874632
vn -0.00001666753857319714 0.00003333526193148309 -0.9999999993054768
vn -0.000050002497965824866 0 -0.9999999987498751
vn -0.00001666749933120234 0.00001666763096574155 -0.9999999997221922
vn 0.000005773967110663599 0.999999996644786 0.0000817134560344612
vn -0.0000011597779390086918 0.9999999954254063 0.0000956443537904179
vn 0.0000033099337613484654 0.9999999951524142 0.00009840841429736784
vn 0.000005773967110663599 0.999999996644786 0.0000817134560344612
vn -0.00000347933381628526 0.9999999968422699 0.00007939366787952019
vn -0.0000011597779390086918 0.9999999954254063 0.0000956443537904179
vn 0.00009772306270992235 0.9999999926966899 0.00007111134336228933
vn 0.0000033099337613484654 0.9999999951524142 0.00009840841429736784
vn 0.000113521363442697 0.9999999904668644 0.00007860770609926463
vn 0.00009772306270992235 0.9999999926966899 0.00007111134336228933
vn 0.000005773967110663599 0.999999996644786 0.0000817134560344612
vn 0.0000033099337613484654 0.9999999951524142 0.00009840841429736784
vn 0.0002365879006566478 0.9999999714812078 0.00003261516904630573
vn 0.000113521363442697 0.9999999904668644 0.00007860770609926463
vn 0.00016668018782044788 0.9999999854133251 0.00003729697473260316
vn 0.0002365879006566478 0.9999999714812078 0.00003261516904630573
vn 0.00009772306270992235 0.9999999926966899 0.00007111134336228933
vn 0.000113521363442697 0.9999999904668644 0.00007860770609926463
vn 0.00016668018782044788 0.9999999854133251 0.00003729697473260316
vn 0.00006351782959695841 0.9999999941729536 0.00008729019558596326
vn 0.00005876119454525666 0.9999999977181638 0.000033328575586664014
vn 0.00016668018782044788 0.9999999854133251 0.00003729697473260316
vn 0.000113521363442697 0.9999999904668644 0.00007860770609926463
vn 0.00006351782959695841 0.9999999941729536 0.00008729019558596326
vn 0.000113521363442697 0.9999999904668644 0.00007860770609926463
vn -0.000003889911243625347 0.9999999941843118 0.00010777868453276044
vn 0.00006351782959695841 0.9999999941729536 0.00008729019558596326
vn 0.000113521363442697 0.9999999904668644 0.00007860770609926463
vn 0.0000033099337613484654 0.9999999951524142 0.00009840841429736784
vn -0.000003889911243625347 0.9999999941843118 0.00010777868453276044
vn 0.0000033099337613484654 0.9999999951524142 0.00009840841429736784
vn -0.0000048410777725265084 0.9999999934877065 0.00011402258998456259
vn -0.000003889911243625347 0.9999999941843118 0.00010777868453276044
vn 0.0000033099337613484654 0.9999999951524142 0.00009840841429736784
vn -0.0000011597779390086918 0.9999999954254063 0.0000956443537904179
vn -0.0000048410777725265084 0.9999999934877065 0.00011402258998456259
vn -0.000003889911243625347 0.9999999941843118 0.00010777868453276044
vn -0.000007266691645641572 0.9999999949743026 0.00009999295078615681
vn -0.000003992793285449917 0.9999999949933129 0.00009998715791313262
vn -0.000003889911243625347 0.9999999941843118 0.00010777868453276044
vn -0.0000048410777725265084 0.9999999934877065 0.00011402258998456259
vn -0.000007266691645641572 0.9999999949743026 0.00009999295078615681
vn 0.00006351782959695841 0.9999999941729536 0.00008729019558596326
vn -0.000003992793285449917 0.9999999949933129 0.00009998715791313262
vn 0.00002728036681796736 0.999999997406303 0.00006665715032317601
vn 0.00006351782959695841 0.9999999941729536 0.00008729019558596326
vn -0.000003889911243625347 0.9999999941843118 0.00010777868453276044
vn -0.000003992793285449917 0.9999999949933129 0.00009998715791313262
vn 0.00005876119454525666 0.9999999977181638 0.000033328575586664014
vn 0.00002728036681796736 0.999999997406303 0.00006665715032317601
vn -0.000007897615432157383 0.9999999999688138 6.7112105801142376e-12
vn 0.00005876119454525666 0.9999999977181638 0.000033328575586664014
vn 0.00006351782959695841 0.9999999941729536 0.00008729019558596326
vn 0.00002728036681796736 0.999999997406303 0.00006665715032317601
vn -1 -3.7372288302350098e-16 -4.616872016554087e-16
vn -1 1.752699985630306e-17 1.2602107308389815e-15
vn -1 -6.062731758294649e-16 1.3513167520243368e-15
vn -1 -3.7372288302350098e-16 -4.616872016554087e-16
vn -1 3.5998330276118714e-16 -2.2927540402908208e-15
vn -1 1.752699985630306e-17 1.2602107308389815e-15
vn -1 -6.062731758294649e-16 1.3513167520243368e-15
vn -1 1.7074811096829857e-15 1.9024005167936025e-15
vn -1 3.4179490075334075e-15 2.1001608415279006e-16
vn -1 -6.062731758294649e-16 1.3513167520243368e-15
vn -1 1.752699985630306e-17 1.2602107308389815e-15
vn -1 1.7074811096829857e-15 1.9024005167936025e-15
vn -1 5.534239623954816e-16 -9.300083168254811e-16
vn -1 3.4179490075334075e-15 2.1001608415279006e-16
vn -1 2.2826150559121868e-15 -9.45076649145331e-16
vn -1 5.534239623954816e-16 -9.300083168254811e-16
vn -1 -6.062731758294649e-16 1.3513167520243368e-15
vn -1 3.4179490075334075e-15 2.1001608415279006e-16
vn -1 1.1413075279560934e-15 -2.094810857907404e-15
vn -1 2.2826150559121868e-15 -9.45076649145331e-16
vn -1 0 1.8780419800478267e-16
vn -1 1.1413075279560934e-15 -2.094810857907404e-15
vn -1 5.534239623954816e-16 -9.300083168254811e-16
vn -1 2.2826150559121868e-15 -9.45076649145331e-16
vn -1 -1.1570439354549405e-15 -9.22030514953617e-16
vn -1 5.534239623954816e-16 -9.300083168254811e-16
vn -1 1.1413075279560934e-15 -2.094810857907404e-15
vn -1 -1.1570439354549405e-15 -9.22030514953617e-16
vn -1 -1.700911005983642e-15 2.3755702514888867e-16
vn -1 5.534239623954816e-16 -9.300083168254811e-16
vn -1 -1.700911005983642e-15 2.3755702514888867e-16
vn -1 -6.062731758294649e-16 1.3513167520243368e-15
vn -1 5.534239623954816e-16 -9.300083168254811e-16
vn -1 -1.700911005983642e-15 2.3755702514888867e-16
vn -1 -3.7372288302350098e-16 -4.616872016554087e-16
vn -1 -6.062731758294649e-16 1.3513167520243368e-15
vn -1 -6.622349574087187e-16 -1.146377020145713e-15
vn -1 3.5998330276118714e-16 -2.2927540402908208e-15
vn -1 -3.7372288302350098e-16 -4.616872016554087e-16
vn -1 -6.622349574087187e-16 -1.146377020145713e-15
vn -1 -2.9549889976884503e-15 0
vn -1 3.5998330276118714e-16 -2.2927540402908208e-15
vn -1 3.595777416154466e-16 1.2456432111562887e-16
vn -1 -3.7372288302350098e-16 -4.616872016554087e-16
vn -1 -1.700911005983642e-15 2.3755702514888867e-16
vn -1 3.595777416154466e-16 1.2456432111562887e-16
vn -1 -6.622349574087187e-16 -1.146377020145713e-15
vn -1 -3.7372288302350098e-16 -4.616872016554087e-16
vn -1 0 2.350134205013235e-16
vn -1 -1.700911005983642e-15 2.3755702514888867e-16
vn -1 -1.1570439354549405e-15 -9.22030514953617e-16
vn -1 0 2.350134205013235e-16
vn -1 0 2.350134205013235e-16
vn -1 -1.700911005983642e-15 2.3755702514888867e-16
g wfc_corner
usemtl material1
f 1/1/1 2/2/2 3/3/3
f 1/4/4 4/5/5 2/6/6
f 5/7/7 6/8/8 7/9/9
f 5/10/10 8/11/11 6/12/12
f 9/13/13 10/14/14 11/15/15
f 9/16/16 12/17/17 10/18/18
f 13/19/19 14/20/20 15/21/21
f 13/22/22 16/23/23 14/24/24
f 17/25/25 18/26/26 19/27/27
f 17/28/28 20/29/29 18/30/30
f 21/31/31 22/32/32 23/33/33
f 21/34/34 24/35/35 22/36/36
f 25/37/37 26/38/38 27/39/39
f 25/40/40 28/41/41 26/42/42
f 29/43/43 30/44/44 31/45/45
f 29/46/46 32/47/47 30/48/48
f 33/49/49 34/50/50 35/51/51
f 33/52/52 36/53/53 34/54/54
f 37/55/55 38/56/56 39/57/57
f 37/58/58 40/59/59 38/60/60
f 41/61/61 42/62/62 43/63/63
f 41/64/64 44/65/65 42/66/66
f 45/67/67 46/68/68 47/69/69
f 45/70/70 48/71/71 46/72/72
f 49/73/73 50/74/74 51/75/75
f 49/76/76 52/77/77 50/78/78
f 53/79/79 54/80/80 55/81/81
f 53/82/82 56/83/83 54/84/84
f 57/85/85 58/86/86 59/87/87
f 57/88/88 60/89/89 58/90/90
f 61/91/91 62/92/92 63/93/93
f 61/94/94 64/95/95 62/96/96
f 65/97/97 66/98/98 67/99/99
f 65/100/100 68/101/101 66/102/102
f 69/103/103 70/104/104 71/105/105
f 69/106/106 72/107/107 70/108/108
f 73/109/109 74/110/110 75/111/111
f 73/112/112 76/113/113 74/114/114
f 77/115/115 78/116/116 79/117/117
f 77/118/118 80/119/119 78/120/120
f 81/121/121 82/122/122 83/123/123
f 81/124/124 84/125/125 82/126/126
f 85/127/127 86/128/128 87/129/129
f 85/130/130 88/131/131 86/132/132
f 89/133/133 90/134/134 91/135/135
f 89/136/136 92/137/137 90/138/138
f 93/139/139 94/140/140 95/141/141
f 93/142/142 96/143/143 94/144/144
f 97/145/145 98/146/146 99/147/147
f 97/148/148 100/149/149 98/150/150
f 101/151/151 102/152/152 103/153/153
f 101/154/154 104/155/155 102/156/156
f 105/157/157 106/158/158 107/159/159
f 105/160/160 108/161/161 106/162/162
